<?xml version="1.0" standalone="no"?>
<!DOCTYPE svg PUBLIC "-//W3C//DTD SVG 20010904//EN"
 "http://www.w3.org/TR/2001/REC-SVG-20010904/DTD/svg10.dtd">
<svg version="1.0" xmlns="http://www.w3.org/2000/svg"
 width="576.000000pt" height="460.000000pt" viewBox="0 0 576.000000 460.000000"
 preserveAspectRatio="xMidYMid meet" fill="current" stroke="current">

<g transform="translate(0.000000,460.000000) scale(0.100000,-0.100000)"
>
<path d="M2868 4230 c-9 -6 -51 -15 -93 -21 -363 -50 -667 -285 -790 -609 -31
-82 -65 -229 -65 -280 0 -22 -4 -40 -10 -40 -5 0 -10 -11 -10 -25 0 -14 5 -25
10 -25 6 0 10 -20 10 -44 0 -48 31 -183 60 -264 71 -192 213 -367 390 -481
111 -71 294 -133 438 -148 28 -3 52 -9 52 -14 0 -5 9 -9 20 -9 11 0 20 5 20
10 0 6 17 10 39 10 21 0 51 4 67 9 16 5 62 17 103 26 293 67 558 300 666 585
31 82 65 229 65 280 0 22 5 40 10 40 6 0 10 11 10 25 0 14 -4 25 -10 25 -5 0
-10 18 -10 40 0 71 -47 244 -95 345 -137 294 -422 497 -761 545 -44 6 -80 15
-82 20 -4 12 -12 12 -34 0z"/>
<path d="M2345 4219 c-10 -15 3 -25 16 -12 7 7 7 13 1 17 -6 3 -14 1 -17 -5z"/>
<path d="M3396 4222 c-3 -6 -1 -14 5 -17 15 -10 25 3 12 16 -7 7 -13 7 -17 1z"/>
<path d="M1910 3785 c0 -9 5 -15 11 -13 6 2 11 8 11 13 0 5 -5 11 -11 13 -6 2
-11 -4 -11 -13z"/>
<path d="M3827 3794 c-8 -8 1 -24 14 -24 5 0 9 7 9 15 0 15 -12 20 -23 9z"/>
<path d="M940 3679 c0 -7 -46 -9 -145 -7 -92 2 -145 -1 -145 -7 0 -6 39 -9
102 -7 l103 3 -68 -25 c-91 -33 -155 -75 -224 -150 -68 -72 -105 -143 -135
-258 -12 -46 -26 -84 -30 -86 -11 -5 -10 -29 2 -50 5 -9 19 -52 30 -95 38
-146 105 -245 222 -327 73 -51 199 -100 259 -100 16 0 29 -4 29 -10 0 -5 11
-10 25 -10 14 0 25 5 25 10 0 6 13 10 30 10 54 0 177 47 249 95 118 78 203
203 231 340 7 33 19 70 26 82 16 25 18 53 5 53 -5 0 -16 33 -25 74 -23 103
-74 201 -140 273 -68 73 -132 116 -223 149 l-68 25 103 -3 c63 -2 102 1 102 7
0 6 -53 9 -145 7 -99 -2 -145 0 -145 7 0 6 -11 11 -25 11 -14 0 -25 -5 -25
-11z"/>
<path d="M4770 3679 c0 -7 -46 -9 -145 -7 -92 2 -145 -1 -145 -7 0 -6 39 -9
102 -7 l103 3 -68 -25 c-185 -67 -318 -221 -363 -422 -9 -41 -20 -74 -25 -74
-12 0 -12 -33 0 -45 5 -6 19 -48 31 -95 38 -150 111 -256 231 -336 72 -47 195
-94 249 -94 17 0 30 -4 30 -10 0 -5 11 -10 25 -10 14 0 25 5 25 10 0 6 13 10
30 10 54 0 177 47 249 95 119 78 190 181 230 330 12 44 26 88 31 97 12 22 13
48 2 48 -5 0 -16 33 -26 74 -25 106 -74 202 -140 273 -68 73 -132 116 -223
149 l-68 25 103 -3 c63 -2 102 1 102 7 0 6 -53 9 -145 7 -99 -2 -145 0 -145 7
0 6 -11 11 -25 11 -14 0 -25 -5 -25 -11z"/>
<path d="M402 3419 c2 -6 8 -10 13 -10 5 0 11 4 13 10 2 6 -4 11 -13 11 -9 0
-15 -5 -13 -11z"/>
<path d="M1502 3421 c2 -7 7 -12 11 -12 12 1 9 15 -3 20 -7 2 -11 -2 -8 -8z"/>
<path d="M4235 3421 c-6 -11 9 -23 19 -14 9 9 7 23 -3 23 -6 0 -12 -4 -16 -9z"/>
<path d="M5332 3419 c2 -6 8 -10 13 -10 5 0 11 4 13 10 2 6 -4 11 -13 11 -9 0
-15 -5 -13 -11z"/>
<path d="M407 2824 c-8 -8 1 -24 14 -24 5 0 9 7 9 15 0 15 -12 20 -23 9z"/>
<path d="M1500 2815 c0 -9 5 -15 11 -13 6 2 11 8 11 13 0 5 -5 11 -11 13 -6 2
-11 -4 -11 -13z"/>
<path d="M4237 2824 c-8 -8 1 -24 14 -24 5 0 9 7 9 15 0 15 -12 20 -23 9z"/>
<path d="M5330 2815 c0 -9 5 -15 11 -13 6 2 11 8 11 13 0 5 -5 11 -11 13 -6 2
-11 -4 -11 -13z"/>
<path d="M1910 2725 c0 -9 5 -15 11 -13 6 2 11 8 11 13 0 5 -5 11 -11 13 -6 2
-11 -4 -11 -13z"/>
<path d="M3827 2734 c-8 -8 1 -24 14 -24 5 0 9 7 9 15 0 15 -12 20 -23 9z"/>
<path d="M650 2570 c0 -5 7 -10 15 -10 8 0 15 5 15 10 0 6 -7 10 -15 10 -8 0
-15 -4 -15 -10z"/>
<path d="M1250 2570 c0 -5 7 -10 15 -10 8 0 15 5 15 10 0 6 -7 10 -15 10 -8 0
-15 -4 -15 -10z"/>
<path d="M4480 2570 c0 -5 7 -10 15 -10 8 0 15 5 15 10 0 6 -7 10 -15 10 -8 0
-15 -4 -15 -10z"/>
<path d="M5080 2570 c0 -5 7 -10 15 -10 8 0 15 5 15 10 0 6 -7 10 -15 10 -8 0
-15 -4 -15 -10z"/>
<path d="M670 2310 c0 -5 -15 -10 -33 -10 -48 0 -187 -52 -251 -95 -96 -63
-185 -183 -222 -299 -13 -39 -14 -37 -12 56 1 54 -2 99 -7 100 -4 2 -7 -63 -6
-144 2 -100 -1 -148 -8 -148 -17 0 -13 -37 4 -44 22 -8 22 -226 0 -226 -9 0
-15 -9 -15 -25 0 -14 5 -25 11 -25 8 0 10 -22 7 -70 -4 -53 -2 -70 7 -70 9 0
12 12 9 43 l-5 42 25 -46 c14 -25 41 -61 62 -78 37 -33 113 -71 140 -71 8 0
14 -4 14 -10 0 -5 11 -10 25 -10 14 0 25 5 25 10 0 6 93 10 260 10 167 0 260
-4 260 -10 0 -5 10 -10 21 -10 19 0 21 4 15 39 -8 52 31 205 83 322 87 198
253 400 426 518 61 43 86 54 112 53 29 -2 33 0 33 23 0 20 -5 25 -23 25 -13 0
-34 11 -47 25 -12 13 -28 23 -34 22 -6 -1 -10 8 -8 21 3 22 -23 33 -30 12 -6
-18 -107 32 -108 53 0 11 -5 17 -12 14 -7 -2 -12 -10 -10 -16 3 -14 -15 -15
-23 -1 -3 6 -26 10 -51 10 -24 0 -44 5 -44 10 0 6 -9 10 -19 10 -11 0 -23 -4
-26 -10 -4 -6 -100 -10 -256 -10 -159 0 -249 4 -249 10 0 6 -9 10 -20 10 -11
0 -20 -4 -20 -10z"/>
<path d="M4500 2311 c0 -5 -19 -11 -42 -13 -24 -3 -51 -8 -61 -13 -12 -5 -17
-3 -15 5 2 7 -3 15 -9 17 -8 3 -13 -3 -13 -14 -1 -21 -102 -71 -108 -53 -7 21
-33 10 -30 -12 2 -13 -2 -22 -8 -21 -6 1 -22 -9 -34 -22 -13 -14 -34 -25 -47
-25 -18 0 -23 -5 -23 -26 0 -22 4 -25 30 -22 43 4 173 -85 280 -191 92 -93
201 -246 248 -351 63 -142 112 -324 92 -344 -20 -20 -11 -46 15 -46 14 0 25 5
25 10 0 6 93 10 260 10 167 0 260 -4 260 -10 0 -5 11 -10 25 -10 14 0 25 5 25
10 0 6 6 10 14 10 27 0 103 38 140 71 21 17 48 53 62 78 l25 46 -5 -42 c-3
-31 0 -43 9 -43 9 0 11 17 7 70 -3 48 -1 70 7 70 6 0 11 11 11 25 0 16 -6 25
-15 25 -12 0 -15 19 -15 110 0 89 3 112 15 116 17 7 21 44 4 44 -7 0 -10 47
-8 143 1 78 -2 143 -7 144 -4 2 -7 -41 -6 -95 l2 -97 -18 50 c-64 172 -184
296 -338 350 -36 12 -68 25 -71 29 -4 3 -26 6 -50 6 -23 0 -43 5 -43 10 0 6
-9 10 -19 10 -11 0 -23 -4 -26 -10 -4 -6 -98 -10 -250 -10 -152 0 -246 4 -250
10 -8 12 -45 13 -45 1z"/>
<path d="M375 2301 c-7 -12 12 -24 25 -16 11 7 4 25 -10 25 -5 0 -11 -4 -15
-9z"/>
<path d="M2340 2295 c0 -9 5 -15 11 -13 6 2 11 8 11 13 0 5 -5 11 -11 13 -6 2
-11 -4 -11 -13z"/>
<path d="M3397 2304 c-8 -8 1 -24 14 -24 5 0 9 7 9 15 0 15 -12 20 -23 9z"/>
<path d="M5355 2301 c-7 -12 12 -24 25 -16 11 7 4 25 -10 25 -5 0 -11 -4 -15
-9z"/>
<path d="M2200 2040 c0 -5 -15 -10 -32 -10 -41 0 -148 -24 -253 -57 -291 -91
-533 -335 -633 -639 -29 -90 -67 -317 -53 -322 14 -5 15 -192 1 -192 -12 0
-13 -31 -1 -62 5 -13 16 -49 25 -80 38 -131 146 -239 280 -279 39 -12 79 -25
88 -30 24 -12 48 -11 48 1 0 7 410 10 1210 10 800 0 1210 -3 1210 -10 0 -12
25 -13 48 -1 9 5 46 17 82 27 83 24 169 82 216 145 40 55 83 151 84 187 0 12
6 31 12 42 10 16 10 24 0 40 -16 26 -17 200 -1 200 8 0 9 12 5 38 -4 20 -13
77 -22 127 -55 326 -235 580 -524 738 -95 52 -317 117 -397 117 -18 0 -33 5
-33 10 0 14 -47 12 -54 -2 -5 -10 -7 -10 -12 0 -10 20 -54 15 -54 -7 0 -21
-33 -37 -175 -82 -134 -43 -365 -74 -365 -49 0 6 -9 10 -20 10 -11 0 -20 -4
-20 -10 0 -25 -231 6 -365 49 -142 45 -175 61 -175 82 0 22 -44 27 -54 7 -5
-10 -7 -10 -12 0 -7 14 -54 16 -54 2z"/>
<path d="M1665 2031 c-7 -12 12 -24 25 -16 11 7 4 25 -10 25 -5 0 -11 -4 -15
-9z"/>
<path d="M4065 2031 c-7 -12 12 -24 25 -16 11 7 4 25 -10 25 -5 0 -11 -4 -15
-9z"/>
<path d="M1227 1593 c-3 -5 -2 -15 2 -22 7 -10 10 -10 16 -1 4 6 3 16 -3 22
-5 5 -12 6 -15 1z"/>
<path d="M4515 1589 c-4 -6 -3 -15 3 -21 6 -6 11 -4 15 6 7 18 -9 31 -18 15z"/>
<path d="M256 1213 c-11 -11 -6 -23 9 -23 8 0 15 4 15 9 0 13 -16 22 -24 14z"/>
<path d="M5486 1213 c-11 -11 -6 -23 9 -23 8 0 15 4 15 9 0 13 -16 22 -24 14z"/>
<path d="M1227 574 c-8 -8 1 -24 14 -24 5 0 9 7 9 15 0 15 -12 20 -23 9z"/>
<path d="M4510 565 c0 -9 5 -15 11 -13 6 2 11 8 11 13 0 5 -5 11 -11 13 -6 2
-11 -4 -11 -13z"/>
<path d="M1416 393 c-11 -11 -6 -23 9 -23 8 0 15 4 15 9 0 13 -16 22 -24 14z"/>
<path d="M4326 393 c-11 -11 -6 -23 9 -23 8 0 15 4 15 9 0 13 -16 22 -24 14z"/>
</g>
</svg>
